# Created by Kenney (www.kenney.nl)

mtllib duck.mtl

v 6 1 0.5
v 5 1 0.5
v 5.965926 1.258819 0.5
v 5 2 0.5
v 5.866025 1.5 0.5
v 5.707107 1.707107 0.5
v 5.5 1.866025 0.5
v 5.258819 1.965926 0.5
v 5.707107 1.707107 -0.5
v 5.5 1.866025 -0.5
v 5.866025 1.5 -0.5
v 5.965926 1.258819 -0.5
v 6 1 -0.5
v 5.258819 1.965926 -0.5
v 5 2 -0.5
v 5 1 -0.5
v 5.258819 0.03407419 0.5
v 5.258819 0.03407419 -0.5
v 5 0 0.5
v 5 0 -0.5
v 5.5 0.1339746 -0.5
v 5.5 0.1339746 0.5
v 5.707107 0.2928932 -0.5
v 5.707107 0.2928932 0.5
v 5.866025 0.5 0.5
v 5.866025 0.5 -0.5
v 5.965926 0.741181 0.5
v 5.965926 0.741181 -0.5
v -4.258819 1.965926 -0.5
v -4.258819 1.965926 0.5
v -4.5 1.866025 -0.5
v -4.5 1.866025 0.5
v -4 2 0.5
v -4 2 -0.5
v -4.707107 1.707107 -0.5
v -4.707107 1.707107 0.5
v -4.866025 1.5 0.5
v -4.866025 1.5 -0.5
v -4.965926 1.258819 0.5
v -4.965926 1.258819 -0.5
v -5 1 0.5
v -5 1 -0.5
v -4 1 -0.5
v -4 1 0.5
v -4.5 0.1339746 0.5
v -4.5 0.1339746 -0.5
v -4.707107 0.2928932 0.5
v -4.707107 0.2928932 -0.5
v -4.258819 0.03407419 -0.5
v -4.258819 0.03407419 0.5
v -4 0 -0.5
v -4 0 0.5
v -4.866025 0.5 -0.5
v -4.866025 0.5 0.5
v -4.965926 0.741181 -0.5
v -4.965926 0.741181 0.5
v 5 2 1.5
v 4 2 1.5
v 4.965926 2.258819 1.5
v 4 3 1.5
v 4.866025 2.5 1.5
v 4.707107 2.707107 1.5
v 4.5 2.866025 1.5
v 4.258819 2.965926 1.5
v 4.707107 2.707107 -1.5
v 4.5 2.866025 -1.5
v 4.866025 2.5 -1.5
v 4.965926 2.258819 -1.5
v 5 2 -1.5
v 4.258819 2.965926 -1.5
v 4 3 -1.5
v 4 2 -1.5
v -3.258819 2.965926 -1.5
v -3.258819 2.965926 1.5
v -3.5 2.866025 -1.5
v -3.5 2.866025 1.5
v -3 3 1.5
v -3 3 -1.5
v -3.707107 2.707107 -1.5
v -3.707107 2.707107 1.5
v -3.866025 2.5 1.5
v -3.866025 2.5 -1.5
v -3.965926 2.258819 1.5
v -3.965926 2.258819 -1.5
v -4 2 1.5
v -4 2 -1.5
v -3 2 -1.5
v -3 2 1.5
v 5 1 1.5
v 5 1 -1.5
v -4 1 1.5
v -4 1 -1.5
v 6 -2 1
v 6 -2 -1
v 3 -2 1
v 3 -2 -1
v 3 -1 -1
v 3 -1 1
v 6 -1 -1
v 6 -1 1
v 5 0 1.5
v 5 0 -1.5
v -4 0 1.5
v -4 0 -1.5
v 5 -3 1
v 5 -3 -1
v 3 -3 1
v 3 -3 -1
v 5 -2 -1
v 5 -2 1
v 4 -4 1
v 4 -4 -1
v 2 -4 1
v 2 -4 -1
v 2 -3 -1
v 2 -3 1
v 4 -3 -1
v 4 -3 1
v -1 -3 1
v -1 -3 -1
v -1 -2 -1
v -1 -2 1
v 2 -2 -1
v 2 -2 1
v -1 -4 1
v -1 -4 -1
v -3 -4 1
v -3 -4 -1
v -3 -3 -1
v -3 -3 1
v -2 -2 1
v -2 -2 -1
v -5 -2 1
v -5 -2 -1
v -5 -1 -1
v -5 -1 1
v -2 -1 -1
v -2 -1 1
v -4 -3 1
v -4 -3 -1
v -4 -2 -1
v -4 -2 1
v -3 -2 -1
v -3 -2 1
v -2 -3 1
v -2 -3 -1
v 5 -1 1
v 5 -1 -1
v 2 -1 1
v 2 -1 -1
v 2 0 -1
v 2 0 1
v 5 0 -1
v 5 0 1
v -1 -1 1
v -1 -1 -1
v -4 -1 1
v -4 -1 -1
v -4 0 -1
v -4 0 1
v -1 0 -1
v -1 0 1
v 5 -7 2
v 5 -7 -2
v -4 -7 2
v -4 -7 -2
v -4 -6 -2
v -4 -6 2
v 5 -6 -2
v 5 -6 2
v 3 -6 1.5
v 3 -6 -1.5
v -2 -6 1.5
v -2 -6 -1.5
v -2 -4 -1.5
v -2 -4 1.5
v 3 -4 -1.5
v 3 -4 1.5
v 1 -2 1
v 1 -2 -1
v 1 0 -1
v 1 0 1
v 0 -2 1
v 0 -2 -1
v 0 0 -1
v 0 0 1

vn 0 0 1
vn 0.7071068 0.7071068 0
vn 0.5 0.8660254 0
vn 0.8660254 0.5 0
vn 0.9659258 0.258819 0
vn 0.9914449 0.1305262 0
vn 0.2588191 0.9659258 0
vn 0.1305262 0.9914449 0
vn 0 0 -1
vn 0 -1 0
vn -1 0 0
vn 0.258819 -0.9659258 0
vn 0.1305262 -0.9914449 0
vn 0.5 -0.8660254 0
vn 0.7071068 -0.7071068 0
vn 0.8660254 -0.5 0
vn 0.9659258 -0.258819 0
vn 0.9914449 -0.1305262 0
vn 0 1 0
vn -0.258819 0.9659258 0
vn -0.5 0.8660254 0
vn -0.1305262 0.9914449 0
vn -0.7071068 0.7071068 0
vn -0.8660254 0.5 0
vn -0.9659258 0.258819 0
vn -0.9914449 0.1305262 0
vn 1 0 0
vn -0.5 -0.8660254 0
vn -0.7071068 -0.7071068 0
vn -0.258819 -0.9659258 0
vn -0.1305262 -0.9914449 0
vn -0.8660254 -0.5 0
vn -0.9659258 -0.258819 0
vn -0.9914449 -0.1305262 0
vn 0.7071068 0.7071068 0
vn 0.9659259 0.2588191 0
vn -0.2588191 0.9659259 0
vn -0.7071068 0.7071068 0
vn -0.9659259 0.2588191 0

vt 0 0

usemtl color3(Clone)

f 3/1/1 2/1/1 1/1/1
f 2/1/1 3/1/1 4/1/1
f 4/1/1 3/1/1 5/1/1
f 4/1/1 5/1/1 6/1/1
f 4/1/1 6/1/1 7/1/1
f 4/1/1 7/1/1 8/1/1
f 10/1/3 6/1/2 9/1/2
f 6/1/2 10/1/3 7/1/3
f 6/1/2 11/1/4 9/1/2
f 11/1/4 6/1/2 5/1/4
f 5/1/4 12/1/5 11/1/4
f 12/1/5 5/1/4 3/1/5
f 3/1/5 13/1/6 12/1/5
f 13/1/6 3/1/5 1/1/6
f 14/1/7 7/1/3 10/1/3
f 7/1/3 14/1/7 8/1/7
f 15/1/8 8/1/7 14/1/7
f 8/1/7 15/1/8 4/1/8
f 16/1/9 12/1/9 13/1/9
f 12/1/9 16/1/9 15/1/9
f 12/1/9 15/1/9 11/1/9
f 11/1/9 15/1/9 9/1/9
f 9/1/9 15/1/9 10/1/9
f 10/1/9 15/1/9 14/1/9
f 2/1/10 13/1/10 1/1/10
f 13/1/10 2/1/10 16/1/10
f 2/1/11 15/1/11 16/1/11
f 15/1/11 2/1/11 4/1/11
f 19/1/13 18/1/12 17/1/12
f 18/1/12 19/1/13 20/1/13
f 21/1/14 17/1/12 18/1/12
f 17/1/12 21/1/14 22/1/14
f 23/1/15 22/1/14 21/1/14
f 22/1/14 23/1/15 24/1/15
f 23/1/15 25/1/16 24/1/15
f 25/1/16 23/1/15 26/1/16
f 26/1/16 27/1/17 25/1/16
f 27/1/17 26/1/16 28/1/17
f 28/1/17 1/1/18 27/1/17
f 1/1/18 28/1/17 13/1/18
f 19/1/11 16/1/11 20/1/11
f 16/1/11 19/1/11 2/1/11
f 16/1/19 1/1/19 13/1/19
f 1/1/19 16/1/19 2/1/19
f 16/1/9 18/1/9 20/1/9
f 18/1/9 16/1/9 21/1/9
f 21/1/9 16/1/9 23/1/9
f 23/1/9 16/1/9 26/1/9
f 26/1/9 16/1/9 28/1/9
f 28/1/9 16/1/9 13/1/9
f 17/1/1 2/1/1 19/1/1
f 2/1/1 17/1/1 22/1/1
f 2/1/1 22/1/1 24/1/1
f 2/1/1 24/1/1 25/1/1
f 2/1/1 25/1/1 27/1/1
f 2/1/1 27/1/1 1/1/1
f 31/1/21 30/1/20 29/1/20
f 30/1/20 31/1/21 32/1/21
f 33/1/22 29/1/20 30/1/20
f 29/1/20 33/1/22 34/1/22
f 35/1/23 32/1/21 31/1/21
f 32/1/21 35/1/23 36/1/23
f 35/1/23 37/1/24 36/1/23
f 37/1/24 35/1/23 38/1/24
f 38/1/24 39/1/25 37/1/24
f 39/1/25 38/1/24 40/1/25
f 40/1/25 41/1/26 39/1/25
f 41/1/26 40/1/25 42/1/26
f 33/1/27 43/1/27 34/1/27
f 43/1/27 33/1/27 44/1/27
f 40/1/9 43/1/9 42/1/9
f 43/1/9 40/1/9 34/1/9
f 34/1/9 40/1/9 38/1/9
f 34/1/9 38/1/9 35/1/9
f 34/1/9 35/1/9 31/1/9
f 34/1/9 31/1/9 29/1/9
f 33/1/1 41/1/1 44/1/1
f 41/1/1 33/1/1 39/1/1
f 39/1/1 33/1/1 37/1/1
f 37/1/1 33/1/1 36/1/1
f 36/1/1 33/1/1 32/1/1
f 32/1/1 33/1/1 30/1/1
f 41/1/10 43/1/10 44/1/10
f 43/1/10 41/1/10 42/1/10
f 47/1/29 46/1/28 45/1/28
f 46/1/28 47/1/29 48/1/29
f 49/1/30 45/1/28 46/1/28
f 45/1/28 49/1/30 50/1/30
f 51/1/31 50/1/30 49/1/30
f 50/1/30 51/1/31 52/1/31
f 47/1/29 53/1/32 48/1/29
f 53/1/32 47/1/29 54/1/32
f 54/1/32 55/1/33 53/1/32
f 55/1/33 54/1/32 56/1/33
f 56/1/33 42/1/34 55/1/33
f 42/1/34 56/1/33 41/1/34
f 42/1/19 44/1/19 43/1/19
f 44/1/19 42/1/19 41/1/19
f 44/1/27 51/1/27 43/1/27
f 51/1/27 44/1/27 52/1/27
f 49/1/9 43/1/9 51/1/9
f 43/1/9 49/1/9 46/1/9
f 43/1/9 46/1/9 48/1/9
f 43/1/9 48/1/9 53/1/9
f 43/1/9 53/1/9 55/1/9
f 43/1/9 55/1/9 42/1/9
f 44/1/1 50/1/1 52/1/1
f 50/1/1 44/1/1 45/1/1
f 45/1/1 44/1/1 47/1/1
f 47/1/1 44/1/1 54/1/1
f 54/1/1 44/1/1 56/1/1
f 56/1/1 44/1/1 41/1/1

usemtl color2(Clone)

f 59/1/1 58/1/1 57/1/1
f 58/1/1 59/1/1 60/1/1
f 60/1/1 59/1/1 61/1/1
f 60/1/1 61/1/1 62/1/1
f 60/1/1 62/1/1 63/1/1
f 60/1/1 63/1/1 64/1/1
f 66/1/3 62/1/35 65/1/35
f 62/1/35 66/1/3 63/1/3
f 62/1/35 67/1/4 65/1/35
f 67/1/4 62/1/35 61/1/4
f 61/1/4 68/1/36 67/1/4
f 68/1/36 61/1/4 59/1/36
f 59/1/36 69/1/6 68/1/36
f 69/1/6 59/1/36 57/1/6
f 70/1/7 63/1/3 66/1/3
f 63/1/3 70/1/7 64/1/7
f 71/1/8 64/1/7 70/1/7
f 64/1/7 71/1/8 60/1/8
f 72/1/9 68/1/9 69/1/9
f 68/1/9 72/1/9 71/1/9
f 68/1/9 71/1/9 67/1/9
f 67/1/9 71/1/9 65/1/9
f 65/1/9 71/1/9 66/1/9
f 66/1/9 71/1/9 70/1/9
f 58/1/10 69/1/10 57/1/10
f 69/1/10 58/1/10 72/1/10
f 58/1/11 71/1/11 72/1/11
f 71/1/11 58/1/11 60/1/11
f 75/1/21 74/1/37 73/1/37
f 74/1/37 75/1/21 76/1/21
f 77/1/22 73/1/37 74/1/37
f 73/1/37 77/1/22 78/1/22
f 79/1/38 76/1/21 75/1/21
f 76/1/21 79/1/38 80/1/38
f 79/1/38 81/1/24 80/1/38
f 81/1/24 79/1/38 82/1/24
f 82/1/24 83/1/39 81/1/24
f 83/1/39 82/1/24 84/1/39
f 84/1/39 85/1/26 83/1/39
f 85/1/26 84/1/39 86/1/26
f 77/1/27 87/1/27 78/1/27
f 87/1/27 77/1/27 88/1/27
f 84/1/9 87/1/9 86/1/9
f 87/1/9 84/1/9 78/1/9
f 78/1/9 84/1/9 82/1/9
f 78/1/9 82/1/9 79/1/9
f 78/1/9 79/1/9 75/1/9
f 78/1/9 75/1/9 73/1/9
f 77/1/1 85/1/1 88/1/1
f 85/1/1 77/1/1 83/1/1
f 83/1/1 77/1/1 81/1/1
f 81/1/1 77/1/1 80/1/1
f 80/1/1 77/1/1 76/1/1
f 76/1/1 77/1/1 74/1/1
f 85/1/10 87/1/10 88/1/10
f 87/1/10 85/1/10 86/1/10
f 91/1/10 90/1/10 89/1/10
f 90/1/10 91/1/10 92/1/10
f 91/1/11 86/1/11 92/1/11
f 86/1/11 91/1/11 85/1/11
f 86/1/9 90/1/9 92/1/9
f 90/1/9 86/1/9 69/1/9
f 57/1/1 91/1/1 89/1/1
f 91/1/1 57/1/1 85/1/1
f 57/1/27 90/1/27 69/1/27
f 90/1/27 57/1/27 89/1/27
f 86/1/19 57/1/19 69/1/19
f 57/1/19 86/1/19 85/1/19
f 88/1/10 72/1/10 58/1/10
f 72/1/10 88/1/10 87/1/10
f 88/1/11 78/1/11 87/1/11
f 78/1/11 88/1/11 77/1/11
f 78/1/9 72/1/9 87/1/9
f 72/1/9 78/1/9 71/1/9
f 60/1/1 88/1/1 58/1/1
f 88/1/1 60/1/1 77/1/1
f 60/1/27 72/1/27 71/1/27
f 72/1/27 60/1/27 58/1/27
f 78/1/19 60/1/19 71/1/19
f 60/1/19 78/1/19 77/1/19

usemtl color0(Clone)

f 95/1/10 94/1/10 93/1/10
f 94/1/10 95/1/10 96/1/10
f 95/1/11 97/1/11 96/1/11
f 97/1/11 95/1/11 98/1/11
f 97/1/9 94/1/9 96/1/9
f 94/1/9 97/1/9 99/1/9
f 100/1/1 95/1/1 93/1/1
f 95/1/1 100/1/1 98/1/1
f 100/1/27 94/1/27 99/1/27
f 94/1/27 100/1/27 93/1/27
f 97/1/19 100/1/19 99/1/19
f 100/1/19 97/1/19 98/1/19
f 103/1/10 102/1/10 101/1/10
f 102/1/10 103/1/10 104/1/10
f 103/1/11 92/1/11 104/1/11
f 92/1/11 103/1/11 91/1/11
f 92/1/9 102/1/9 104/1/9
f 102/1/9 92/1/9 90/1/9
f 89/1/1 103/1/1 101/1/1
f 103/1/1 89/1/1 91/1/1
f 89/1/27 102/1/27 90/1/27
f 102/1/27 89/1/27 101/1/27
f 92/1/19 89/1/19 90/1/19
f 89/1/19 92/1/19 91/1/19
f 107/1/10 106/1/10 105/1/10
f 106/1/10 107/1/10 108/1/10
f 107/1/11 96/1/11 108/1/11
f 96/1/11 107/1/11 95/1/11
f 96/1/9 106/1/9 108/1/9
f 106/1/9 96/1/9 109/1/9
f 110/1/1 107/1/1 105/1/1
f 107/1/1 110/1/1 95/1/1
f 110/1/27 106/1/27 109/1/27
f 106/1/27 110/1/27 105/1/27
f 96/1/19 110/1/19 109/1/19
f 110/1/19 96/1/19 95/1/19
f 113/1/10 112/1/10 111/1/10
f 112/1/10 113/1/10 114/1/10
f 113/1/11 115/1/11 114/1/11
f 115/1/11 113/1/11 116/1/11
f 115/1/9 112/1/9 114/1/9
f 112/1/9 115/1/9 117/1/9
f 118/1/1 113/1/1 111/1/1
f 113/1/1 118/1/1 116/1/1
f 118/1/27 112/1/27 117/1/27
f 112/1/27 118/1/27 111/1/27
f 115/1/19 118/1/19 117/1/19
f 118/1/19 115/1/19 116/1/19
f 119/1/10 115/1/10 116/1/10
f 115/1/10 119/1/10 120/1/10
f 119/1/11 121/1/11 120/1/11
f 121/1/11 119/1/11 122/1/11
f 121/1/9 115/1/9 120/1/9
f 115/1/9 121/1/9 123/1/9
f 124/1/1 119/1/1 116/1/1
f 119/1/1 124/1/1 122/1/1
f 124/1/27 115/1/27 123/1/27
f 115/1/27 124/1/27 116/1/27
f 121/1/19 124/1/19 123/1/19
f 124/1/19 121/1/19 122/1/19
f 127/1/10 126/1/10 125/1/10
f 126/1/10 127/1/10 128/1/10
f 127/1/11 129/1/11 128/1/11
f 129/1/11 127/1/11 130/1/11
f 129/1/9 126/1/9 128/1/9
f 126/1/9 129/1/9 120/1/9
f 119/1/1 127/1/1 125/1/1
f 127/1/1 119/1/1 130/1/1
f 119/1/27 126/1/27 120/1/27
f 126/1/27 119/1/27 125/1/27
f 129/1/19 119/1/19 120/1/19
f 119/1/19 129/1/19 130/1/19
f 133/1/10 132/1/10 131/1/10
f 132/1/10 133/1/10 134/1/10
f 133/1/11 135/1/11 134/1/11
f 135/1/11 133/1/11 136/1/11
f 135/1/9 132/1/9 134/1/9
f 132/1/9 135/1/9 137/1/9
f 138/1/1 133/1/1 131/1/1
f 133/1/1 138/1/1 136/1/1
f 138/1/27 132/1/27 137/1/27
f 132/1/27 138/1/27 131/1/27
f 135/1/19 138/1/19 137/1/19
f 138/1/19 135/1/19 136/1/19
f 139/1/10 129/1/10 130/1/10
f 129/1/10 139/1/10 140/1/10
f 139/1/11 141/1/11 140/1/11
f 141/1/11 139/1/11 142/1/11
f 141/1/9 129/1/9 140/1/9
f 129/1/9 141/1/9 143/1/9
f 144/1/1 139/1/1 130/1/1
f 139/1/1 144/1/1 142/1/1
f 144/1/27 129/1/27 143/1/27
f 129/1/27 144/1/27 130/1/27
f 141/1/19 144/1/19 143/1/19
f 144/1/19 141/1/19 142/1/19
f 130/1/10 146/1/10 145/1/10
f 146/1/10 130/1/10 129/1/10
f 130/1/11 143/1/11 129/1/11
f 143/1/11 130/1/11 144/1/11
f 143/1/9 146/1/9 129/1/9
f 146/1/9 143/1/9 132/1/9
f 131/1/1 130/1/1 145/1/1
f 130/1/1 131/1/1 144/1/1
f 131/1/27 146/1/27 132/1/27
f 146/1/27 131/1/27 145/1/27
f 143/1/19 131/1/19 132/1/19
f 131/1/19 143/1/19 144/1/19

usemtl color15(Clone)

f 149/1/10 148/1/10 147/1/10
f 148/1/10 149/1/10 150/1/10
f 149/1/11 151/1/11 150/1/11
f 151/1/11 149/1/11 152/1/11
f 151/1/9 148/1/9 150/1/9
f 148/1/9 151/1/9 153/1/9
f 154/1/1 149/1/1 147/1/1
f 149/1/1 154/1/1 152/1/1
f 154/1/27 148/1/27 153/1/27
f 148/1/27 154/1/27 147/1/27
f 151/1/19 154/1/19 153/1/19
f 154/1/19 151/1/19 152/1/19
f 124/1/10 96/1/10 95/1/10
f 96/1/10 124/1/10 123/1/10
f 124/1/11 150/1/11 123/1/11
f 150/1/11 124/1/11 149/1/11
f 150/1/9 96/1/9 123/1/9
f 96/1/9 150/1/9 97/1/9
f 98/1/1 124/1/1 95/1/1
f 124/1/1 98/1/1 149/1/1
f 98/1/27 96/1/27 97/1/27
f 96/1/27 98/1/27 95/1/27
f 150/1/19 98/1/19 97/1/19
f 98/1/19 150/1/19 149/1/19
f 157/1/10 156/1/10 155/1/10
f 156/1/10 157/1/10 158/1/10
f 157/1/11 159/1/11 158/1/11
f 159/1/11 157/1/11 160/1/11
f 159/1/9 156/1/9 158/1/9
f 156/1/9 159/1/9 161/1/9
f 162/1/1 157/1/1 155/1/1
f 157/1/1 162/1/1 160/1/1
f 162/1/27 156/1/27 161/1/27
f 156/1/27 162/1/27 155/1/27
f 159/1/19 162/1/19 161/1/19
f 162/1/19 159/1/19 160/1/19
f 131/1/10 121/1/10 122/1/10
f 121/1/10 131/1/10 132/1/10
f 131/1/11 137/1/11 132/1/11
f 137/1/11 131/1/11 138/1/11
f 137/1/9 121/1/9 132/1/9
f 121/1/9 137/1/9 156/1/9
f 155/1/1 131/1/1 122/1/1
f 131/1/1 155/1/1 138/1/1
f 155/1/27 121/1/27 156/1/27
f 121/1/27 155/1/27 122/1/27
f 137/1/19 155/1/19 156/1/19
f 155/1/19 137/1/19 138/1/19

usemtl color8(Clone)

f 165/1/10 164/1/10 163/1/10
f 164/1/10 165/1/10 166/1/10
f 165/1/11 167/1/11 166/1/11
f 167/1/11 165/1/11 168/1/11
f 167/1/9 164/1/9 166/1/9
f 164/1/9 167/1/9 169/1/9
f 170/1/1 165/1/1 163/1/1
f 165/1/1 170/1/1 168/1/1
f 170/1/27 164/1/27 169/1/27
f 164/1/27 170/1/27 163/1/27
f 167/1/19 170/1/19 169/1/19
f 170/1/19 167/1/19 168/1/19
f 173/1/10 172/1/10 171/1/10
f 172/1/10 173/1/10 174/1/10
f 173/1/11 175/1/11 174/1/11
f 175/1/11 173/1/11 176/1/11
f 175/1/9 172/1/9 174/1/9
f 172/1/9 175/1/9 177/1/9
f 178/1/1 173/1/1 171/1/1
f 173/1/1 178/1/1 176/1/1
f 178/1/27 172/1/27 177/1/27
f 172/1/27 178/1/27 171/1/27
f 175/1/19 178/1/19 177/1/19
f 178/1/19 175/1/19 176/1/19

usemtl color1(Clone)

f 116/1/10 108/1/10 107/1/10
f 108/1/10 116/1/10 115/1/10
f 116/1/11 123/1/11 115/1/11
f 123/1/11 116/1/11 124/1/11
f 123/1/9 108/1/9 115/1/9
f 108/1/9 123/1/9 96/1/9
f 95/1/1 116/1/1 107/1/1
f 116/1/1 95/1/1 124/1/1
f 95/1/27 108/1/27 96/1/27
f 108/1/27 95/1/27 107/1/27
f 123/1/19 95/1/19 96/1/19
f 95/1/19 123/1/19 124/1/19
f 125/1/10 114/1/10 113/1/10
f 114/1/10 125/1/10 126/1/10
f 125/1/11 120/1/11 126/1/11
f 120/1/11 125/1/11 119/1/11
f 120/1/9 114/1/9 126/1/9
f 114/1/9 120/1/9 115/1/9
f 116/1/1 125/1/1 113/1/1
f 125/1/1 116/1/1 119/1/1
f 116/1/27 114/1/27 115/1/27
f 114/1/27 116/1/27 113/1/27
f 120/1/19 116/1/19 115/1/19
f 116/1/19 120/1/19 119/1/19
f 145/1/10 120/1/10 119/1/10
f 120/1/10 145/1/10 146/1/10
f 145/1/11 132/1/11 146/1/11
f 132/1/11 145/1/11 131/1/11
f 132/1/9 120/1/9 146/1/9
f 120/1/9 132/1/9 121/1/9
f 122/1/1 145/1/1 119/1/1
f 145/1/1 122/1/1 131/1/1
f 122/1/27 120/1/27 121/1/27
f 120/1/27 122/1/27 119/1/27
f 132/1/19 122/1/19 121/1/19
f 122/1/19 132/1/19 131/1/19

usemtl color14(Clone)

f 179/1/10 123/1/10 124/1/10
f 123/1/10 179/1/10 180/1/10
f 179/1/11 181/1/11 180/1/11
f 181/1/11 179/1/11 182/1/11
f 181/1/9 123/1/9 180/1/9
f 123/1/9 181/1/9 151/1/9
f 152/1/1 179/1/1 124/1/1
f 179/1/1 152/1/1 182/1/1
f 152/1/27 123/1/27 151/1/27
f 123/1/27 152/1/27 124/1/27
f 181/1/19 152/1/19 151/1/19
f 152/1/19 181/1/19 182/1/19
f 122/1/10 184/1/10 183/1/10
f 184/1/10 122/1/10 121/1/10
f 122/1/11 161/1/11 121/1/11
f 161/1/11 122/1/11 162/1/11
f 161/1/9 184/1/9 121/1/9
f 184/1/9 161/1/9 185/1/9
f 186/1/1 122/1/1 183/1/1
f 122/1/1 186/1/1 162/1/1
f 186/1/27 184/1/27 185/1/27
f 184/1/27 186/1/27 183/1/27
f 161/1/19 186/1/19 185/1/19
f 186/1/19 161/1/19 162/1/19

usemtl color13(Clone)

f 183/1/10 180/1/10 179/1/10
f 180/1/10 183/1/10 184/1/10
f 183/1/11 185/1/11 184/1/11
f 185/1/11 183/1/11 186/1/11
f 185/1/9 180/1/9 184/1/9
f 180/1/9 185/1/9 181/1/9
f 182/1/1 183/1/1 179/1/1
f 183/1/1 182/1/1 186/1/1
f 182/1/27 180/1/27 181/1/27
f 180/1/27 182/1/27 179/1/27
f 185/1/19 182/1/19 181/1/19
f 182/1/19 185/1/19 186/1/19

